<?xml version="1.0" encoding="iso-8859-1"?>
<!-- Uploaded to: SVG Repo, www.svgrepo.com, Generator: SVG Repo Mixer Tools -->
<svg fill="#FFFFFF" height="800px" width="800px" version="1.1" id="Layer_1" xmlns="http://www.w3.org/2000/svg" xmlns:xlink="http://www.w3.org/1999/xlink" 
	 viewBox="0 0 512 512" xml:space="preserve">
<g>
	<g>
		<g>
			<path d="M321.803,133.57h89.219c11.079,0,16.676-13.353,8.901-21.246c-24.311-24.682-64.681-65.048-89.364-89.356
				c-7.894-7.774-21.245-2.177-21.245,8.903v89.212C309.315,127.979,314.906,133.57,321.803,133.57z"/>
			<path d="M291.419,362.362c0-0.003,0-0.005,0-0.008c-0.01-19.532-15.898-35.423-35.418-35.423
				c-19.52,0-35.408,15.891-35.418,35.423c0,19.536,15.887,35.425,35.418,35.425C275.531,397.78,291.419,381.892,291.419,362.362z"
				/>
			<path d="M220.583,403.292v98.585l28.797-28.796c3.656-3.658,9.588-3.658,13.243,0l28.797,28.796v-98.585
				C271.022,420.976,240.819,420.834,220.583,403.292z"/>
			<path d="M430.402,152.301H299.95c-5.172,0-9.366-4.193-9.366-9.366V12.488C290.584,5.591,284.993,0,278.096,0H87.844
				C77.499,0,69.113,8.387,69.113,18.732v474.537c0,10.345,8.387,18.732,18.732,18.732H201.85V362.364
				c0.016-29.873,24.307-54.162,54.15-54.162c29.842,0,54.135,24.289,54.15,54.145c0,0.001,0,0.003,0,0.005v0.013V512h114.006
				c10.345,0,18.732-8.387,18.732-18.732V164.789C442.89,157.893,437.299,152.301,430.402,152.301z M166.871,133.57h60.567
				c5.172,0,9.366,4.193,9.366,9.366c0,5.172-4.193,9.366-9.366,9.366h-60.567c-5.172,0-9.366-4.193-9.366-9.366
				C157.505,137.763,161.697,133.57,166.871,133.57z M345.133,286.494H166.871c-5.172,0-9.366-4.193-9.366-9.366
				c0-5.172,4.193-9.366,9.366-9.366h178.262c5.172,0,9.366,4.193,9.366,9.366C354.499,282.301,350.305,286.494,345.133,286.494z
				 M345.133,219.397H166.871c-5.172,0-9.366-4.193-9.366-9.366s4.193-9.366,9.366-9.366h178.262c5.172,0,9.366,4.193,9.366,9.366
				S350.305,219.397,345.133,219.397z"/>
			<polygon points="236.951,512 275.051,512 256.001,492.95 			"/>
		</g>
	</g>
</g>
</svg>
